<svg xmlns="http://www.w3.org/2000/svg" xmlns:xlink="http://www.w3.org/1999/xlink" width="500" zoomAndPan="magnify" viewBox="0 0 375 374.999991" height="500" preserveAspectRatio="xMidYMid meet" version="1.0"><defs><clipPath id="e756eb2f1e"><path d="M 125 323 L 251 323 L 251 374.890625 L 125 374.890625 Z M 125 323 " clip-rule="nonzero"/></clipPath><clipPath id="e0ccd735c0"><path d="M 3.28125 0.148438 L 371.496094 0.148438 L 371.496094 154 L 3.28125 154 Z M 3.28125 0.148438 " clip-rule="nonzero"/></clipPath></defs><path fill="#000000" d="M 196.394531 144.816406 C 196.394531 197.085938 215.441406 185.90625 194.359375 227.480469 C 192.972656 230.210938 193.566406 233.597656 195.902344 235.574219 C 208.492188 246.207031 194.40625 258.292969 199.558594 266.125 C 208.445312 279.632812 193.203125 288.769531 212.386719 301.566406 C 218.78125 306.367188 233.167969 304.769531 237.964844 306.367188 C 242.761719 307.964844 247.554688 312.765625 253.949219 315.964844 C 259.8125 312.441406 306.097656 265.039062 330.355469 240.019531 C 338.535156 231.585938 338.441406 218.152344 330.136719 209.84375 C 297.363281 177.058594 221.480469 101.132812 213.984375 93.632812 C 205.992188 104.832031 196.394531 127.222656 196.394531 144.816406 " fill-opacity="1" fill-rule="evenodd"/><path fill="#000000" d="M 177.195312 144.816406 C 177.195312 197.085938 158.148438 185.90625 179.230469 227.480469 C 180.617188 230.210938 180.023438 233.597656 177.6875 235.574219 C 165.097656 246.207031 179.183594 258.292969 174.03125 266.125 C 165.144531 279.632812 180.390625 288.769531 161.203125 301.566406 C 154.8125 306.367188 140.421875 304.769531 135.625 306.367188 C 130.828125 307.964844 126.035156 312.765625 119.640625 315.964844 C 113.777344 312.441406 67.492188 265.039062 43.234375 240.019531 C 35.054688 231.585938 35.148438 218.152344 43.457031 209.84375 C 76.226562 177.058594 152.109375 101.132812 159.605469 93.632812 C 167.601562 104.832031 177.195312 127.222656 177.195312 144.816406 " fill-opacity="1" fill-rule="evenodd"/><g clip-path="url(#e756eb2f1e)"><path fill="#000000" d="M 250.644531 323.160156 L 125.289062 323.160156 L 172.300781 368.816406 C 180.554688 376.828125 193.652344 376.921875 202.019531 369.027344 L 250.644531 323.160156 " fill-opacity="1" fill-rule="evenodd"/></g><g clip-path="url(#e0ccd735c0)"><path fill="#000000" d="M 329.449219 132.902344 C 327.851562 112.109375 327.851562 89.71875 327.851562 68.921875 C 327.851562 63.921875 328.371094 60.734375 329.21875 58.542969 L 370.390625 132.902344 Z M 283.707031 132.902344 L 323.054688 58.894531 L 323.054688 132.902344 Z M 323.054688 57.726562 Z M 49.679688 59.324219 C 49.6875 59.320312 49.699219 59.316406 49.707031 59.3125 Z M 49.679688 132.902344 C 49.679688 102.859375 48.121094 90 49.628906 60.347656 L 90.617188 132.902344 Z M 44.886719 132.902344 C 30.859375 132.902344 18.34375 132.902344 4.398438 132.902344 L 44.871094 60.8125 C 44.871094 60.851562 44.886719 60.886719 44.886719 60.925781 C 46.480469 75.324219 44.886719 105.710938 44.886719 132.902344 Z M 371.496094 132.640625 L 329.785156 57.304688 C 332.046875 53.117188 335.890625 53.386719 339.042969 48.128906 C 351.832031 24.136719 307.070312 16.140625 316.664062 51.332031 C 286.285156 52.929688 279.890625 48.128906 254.3125 40.132812 C 233.53125 35.335938 214.347656 32.136719 193.5625 27.335938 C 199.332031 20.328125 199.515625 10.117188 187.167969 0.144531 C 174.375 11.34375 176.277344 20.144531 180.773438 27.335938 C 159.992188 32.136719 137.609375 35.335938 120.023438 40.132812 C 102.4375 44.929688 78.457031 56.128906 57.671875 51.332031 C 68.867188 20.941406 24.097656 24.136719 33.695312 48.128906 C 35.097656 52.347656 42.679688 55.332031 44.488281 59.257812 L 3.292969 132.636719 C 3.292969 132.636719 3.253906 132.832031 3.316406 132.902344 C 19.308594 153.699219 38.488281 153.699219 48.082031 153.699219 C 62.46875 153.699219 81.683594 144.425781 91.277344 133.230469 L 91.71875 132.636719 L 50.15625 59.058594 C 55.796875 56.316406 77.144531 59.277344 86.449219 57.726562 C 96.042969 56.128906 108.832031 51.332031 120.023438 49.726562 C 169.582031 44.929688 163.1875 57.726562 164.785156 64.128906 C 166.386719 70.523438 167.984375 72.121094 174.375 75.324219 C 167.984375 84.921875 180.773438 89.71875 187.167969 107.3125 C 190.367188 92.914062 206.351562 86.519531 199.957031 75.324219 C 203.152344 72.121094 207.949219 70.523438 209.550781 65.726562 C 212.746094 56.128906 207.949219 43.332031 251.113281 49.726562 C 295.714844 56.105469 265.734375 56.128906 322.445312 57.710938 L 282.609375 132.648438 L 283.09375 133.355469 C 289.492188 142.953125 305.46875 153.699219 326.253906 153.699219 C 347.035156 153.699219 359.714844 146.160156 370.90625 133.363281 L 371.496094 132.640625 " fill-opacity="1" fill-rule="nonzero"/></g></svg>